<svg width="24" height="36" viewBox="0 0 24 36" fill="none" xmlns="http://www.w3.org/2000/svg">
<path d="M12 0C5.37525 0 0 5.18384 0 11.5714C0 21.8571 12 36 12 36C12 36 24 21.8571 24 11.5714C24 5.18384 18.6248 0 12 0ZM12 18C11.0507 18 10.1226 17.6984 9.33326 17.1333C8.54391 16.5682 7.92868 15.765 7.56538 14.8252C7.20208 13.8855 7.10702 12.8514 7.29223 11.8538C7.47744 10.8562 7.9346 9.93983 8.60589 9.22059C9.27718 8.50135 10.1325 8.01154 11.0636 7.8131C11.9947 7.61467 12.9598 7.71651 13.8369 8.10576C14.714 8.49501 15.4636 9.15419 15.9911 9.99992C16.5185 10.8457 16.8 11.84 16.8 12.8571C16.7986 14.2207 16.2925 15.5279 15.3926 16.492C14.4927 17.4562 13.2726 17.9985 12 18Z" fill="#FFD900"/>
</svg>
