<?xml version="1.0" encoding="UTF-8"?>
<svg version="1.1" xmlns="http://www.w3.org/2000/svg" width="256" height="256">
<path d="M0 0 C19.47183656 15.87659347 33.94076295 37.65203589 37 63 C41.13835231 115.16480167 9.37430557 160.78441311 -22.55566406 199.25146484 C-24.60373517 201.73089102 -26.60993691 204.24372046 -28.625 206.75 C-32.70885255 211.74220946 -37.03677978 216.47743233 -41.421875 221.203125 C-43.61507832 223.5824183 -45.75876102 225.99002361 -47.875 228.4375 C-48.68904297 229.36369141 -48.68904297 229.36369141 -49.51953125 230.30859375 C-50.87918729 231.86197387 -52.22171605 233.43030171 -53.5625 235 C-56 237 -56 237 -58.8125 237.4375 C-63.12120988 236.84610845 -64.49185917 235.14657714 -67.4375 232 C-67.91848145 231.49307617 -68.39946289 230.98615234 -68.89501953 230.46386719 C-70.28114487 228.99247767 -71.6413098 227.49676033 -73 226 C-73.59683594 225.34515625 -74.19367188 224.6903125 -74.80859375 224.015625 C-75.89032134 222.79632108 -76.95858327 221.5649844 -78.015625 220.32421875 C-79.61209316 218.4543397 -81.22778363 216.60850147 -82.859375 214.76953125 C-90.50584898 206.11325575 -97.63950872 197.16087505 -104.56005859 187.91601562 C-105.82594891 186.23159595 -107.10891543 184.56003804 -108.39453125 182.890625 C-126.53861956 159.22158006 -144.19068708 132.08157335 -152 103 C-152.25821533 102.05253906 -152.51643066 101.10507813 -152.7824707 100.12890625 C-154.77994709 92.25039957 -155.51215499 84.86505647 -155.4375 76.75 C-155.42920166 75.57268311 -155.42090332 74.39536621 -155.41235352 73.18237305 C-154.89727727 46.44423344 -143.42339218 24.45085604 -124.6640625 5.66015625 C-90.85252715 -26.34590876 -36.58774782 -27.97579576 0 0 Z " fill="#5AA1E8" transform="translate(187,19)"/>
<path d="M0 0 C14.74477522 -0.54806718 28.38816137 4.80202599 39.3203125 14.75390625 C50.16574283 26.45972563 54.80101853 40.65632658 54.4140625 56.45703125 C53.20387007 69.60412169 47.05656528 82.35167065 37.37109375 91.37890625 C24.18946375 101.76307657 10.85976445 105.217231 -5.66015625 103.98828125 C-18.17313723 102.28784661 -29.59153374 95.54386136 -37.9296875 86.19140625 C-44.42491608 77.6437355 -49.45362313 68.05809307 -49.9296875 57.19140625 C-49.96964844 56.42183594 -50.00960937 55.65226562 -50.05078125 54.859375 C-50.43668511 40.44473069 -46.03482004 27.80539137 -36.6796875 16.75390625 C-26.59139679 6.32305898 -14.29552217 0.93397411 0 0 Z " fill="#2F73B8" transform="translate(125.9296875,43.80859375)"/>
<path d="M0 0 C19.47183656 15.87659347 33.94076295 37.65203589 37 63 C41.13835231 115.16480167 9.37430557 160.78441311 -22.55566406 199.25146484 C-24.60373517 201.73089102 -26.60993691 204.24372046 -28.625 206.75 C-32.70885255 211.74220946 -37.03677978 216.47743233 -41.421875 221.203125 C-43.61507832 223.5824183 -45.75876102 225.99002361 -47.875 228.4375 C-48.68904297 229.36369141 -48.68904297 229.36369141 -49.51953125 230.30859375 C-50.87918729 231.86197387 -52.22171605 233.43030171 -53.5625 235 C-56 237 -56 237 -58.8125 237.4375 C-63.12120988 236.84610845 -64.49185917 235.14657714 -67.4375 232 C-67.91848145 231.49307617 -68.39946289 230.98615234 -68.89501953 230.46386719 C-70.28114487 228.99247767 -71.6413098 227.49676033 -73 226 C-73.59683594 225.34515625 -74.19367188 224.6903125 -74.80859375 224.015625 C-75.89032134 222.79632108 -76.95858327 221.5649844 -78.015625 220.32421875 C-79.61209316 218.4543397 -81.22778363 216.60850147 -82.859375 214.76953125 C-90.50584898 206.11325575 -97.63950872 197.16087505 -104.56005859 187.91601562 C-105.82594891 186.23159595 -107.10891543 184.56003804 -108.39453125 182.890625 C-126.53861956 159.22158006 -144.19068708 132.08157335 -152 103 C-152.25821533 102.05253906 -152.51643066 101.10507813 -152.7824707 100.12890625 C-154.77994709 92.25039957 -155.51215499 84.86505647 -155.4375 76.75 C-155.42920166 75.57268311 -155.42090332 74.39536621 -155.41235352 73.18237305 C-154.89727727 46.44423344 -143.42339218 24.45085604 -124.6640625 5.66015625 C-90.85252715 -26.34590876 -36.58774782 -27.97579576 0 0 Z M-119 12 C-119.73605469 12.62261719 -120.47210938 13.24523437 -121.23046875 13.88671875 C-136.33208545 27.78261755 -146.32927165 49.84617288 -147.3828125 70.25 C-148.3696394 112.3796139 -122.75431917 149.89083218 -98 182 C-97.58282715 182.54333984 -97.1656543 183.08667969 -96.73583984 183.64648438 C-87.64309437 195.46469524 -77.9999909 206.75923134 -67.98046875 217.80078125 C-65.26219657 220.81929651 -62.62678189 223.90174444 -60 227 C-56.51016383 225.53100437 -54.54045542 223.651923 -52.0625 220.8125 C-51.27746094 219.91660156 -50.49242187 219.02070313 -49.68359375 218.09765625 C-49.04139893 217.35539795 -49.04139893 217.35539795 -48.38623047 216.59814453 C-46.90367982 214.88895528 -45.407617 213.19223025 -43.91015625 211.49609375 C-37.09486476 203.74446717 -30.56529798 195.82385825 -24.2734375 187.64257812 C-23.08398752 186.1083336 -21.87095293 184.59245466 -20.65625 183.078125 C1.33672586 155.36697542 20.12991243 124.72687538 28 90 C28.20238281 89.14664063 28.40476563 88.29328125 28.61328125 87.4140625 C32.15392902 65.31183705 25.15828893 42.51548612 12.25488281 24.66113281 C-2.73151036 4.82311352 -23.73086246 -6.67667819 -48 -11 C-75.19561694 -13.20625769 -98.36588517 -5.66599873 -119 12 Z " fill="#2F73B8" transform="translate(187,19)"/>
</svg>
